<?xml version="1.0" encoding="UTF-8"?>
<svg width="146px" height="182px" viewBox="0 0 146 182" version="1.1" xmlns="http://www.w3.org/2000/svg" xmlns:xlink="http://www.w3.org/1999/xlink">
    <!-- Generator: Sketch 45.2 (43514) - http://www.bohemiancoding.com/sketch -->
    <title>Untitled</title>
    <desc>Created with Sketch.</desc>
    <defs>
        <path d="M12.5685425,27.5685425 L105.354397,27.5685425 L105.354397,27.5685425 C107.231678,27.5685425 108.856383,28.8740514 109.26058,30.7073025 L135.504383,149.73696 L135.504383,149.73696 C135.980033,151.894285 134.616765,154.028733 132.45944,154.504383 C131.892093,154.629472 131.304307,154.629472 130.73696,154.504383 L11.7073025,128.26058 L11.7073025,128.26058 C9.87405143,127.856383 8.56854249,126.231678 8.56854249,124.354397 L8.56854249,31.5685425 L8.56854249,31.5685425 C8.56854249,29.3594035 10.3594035,27.5685425 12.5685425,27.5685425 Z" id="path-1"></path>
    </defs>
    <g id="Page-1" stroke="none" stroke-width="1" fill="none" fill-rule="evenodd">
        <mask id="mask-2" fill="white">
            <use xlink:href="#path-1"></use>
        </mask>
        <g id="Mask" transform="translate(72.710678, 91.710678) rotate(45.000000) translate(-72.710678, -91.710678) ">
            <use fill="#FFFFFF" fill-rule="evenodd" xlink:href="#path-1"></use>
            <path stroke="#B8C1CC" stroke-width="3" d="M12.5685425,26.0685425 L105.354397,26.0685425 C107.935659,26.0685425 110.169627,27.8636173 110.725399,30.3843376 L136.969202,149.413995 C137.62322,152.380317 135.748727,155.315183 132.782405,155.969202 C132.002303,156.141199 131.194097,156.141199 130.413995,155.969202 L11.3843376,129.725399 C8.86361728,129.169627 7.06854249,126.935659 7.06854249,124.354397 L7.06854249,31.5685425 C7.06854249,28.5309764 9.53097637,26.0685425 12.5685425,26.0685425 Z"></path>
        </g>
        <polygon id="Rectangle-4-Copy-2" fill="#E4E4E4" opacity="0.2" mask="url(#mask-2)" transform="translate(90.460678, 53.960678) rotate(45.000000) translate(-90.460678, -53.960678) " points="40.4606781 29.0629689 140.460678 29.0629689 90.6652596 78.8583874"></polygon>
        <polygon id="Rectangle-4-Copy" fill="#DFDFDF" opacity="0.2" mask="url(#mask-2)" transform="translate(55.210678, 109.210678) rotate(45.000000) translate(-55.210678, -109.210678) " points="41.5710678 69.8172798 119.352814 148.604076 -8.93145751 120.319805"></polygon>
    </g>
</svg>